<?xml version="1.0" standalone="no"?>
<!DOCTYPE svg PUBLIC "-//W3C//DTD SVG 20010904//EN"
 "http://www.w3.org/TR/2001/REC-SVG-20010904/DTD/svg10.dtd">
<svg version="1.0" xmlns="http://www.w3.org/2000/svg"
 width="900.000000pt" height="300.000000pt" viewBox="0 0 900.000000 300.000000"
 preserveAspectRatio="xMidYMid meet">

<g transform="translate(0.000000,300.000000) scale(0.100000,-0.100000)"
fill="#000000" stroke="none">
<path d="M1024 2179 c-136 -23 -265 -91 -369 -194 -82 -82 -135 -168 -172
-280 -23 -69 -27 -96 -27 -205 0 -109 4 -136 27 -205 37 -111 90 -198 172
-280 214 -213 519 -263 795 -128 80 39 109 59 181 133 138 138 199 286 199
480 0 118 -19 201 -71 309 -33 67 -58 102 -128 171 -72 74 -101 94 -181 133
-142 69 -280 91 -426 66z m351 -252 c34 -19 40 -27 40 -56 0 -51 -25 -62 -75
-33 -32 18 -44 20 -60 12 -37 -20 -18 -110 23 -110 37 0 123 -48 158 -88 56
-63 83 -137 84 -222 0 -66 -5 -85 -33 -142 -39 -80 -101 -139 -190 -181 -61
-29 -75 -32 -167 -32 -92 0 -106 3 -167 32 -168 79 -256 226 -246 407 8 138
83 258 203 327 56 32 87 36 105 15 22 -28 7 -58 -45 -89 -70 -41 -112 -83
-143 -147 -36 -74 -38 -191 -3 -261 35 -74 86 -125 157 -160 55 -27 76 -32
138 -32 120 0 222 58 270 155 51 101 22 236 -62 293 -56 38 -64 34 -45 -27 48
-161 -19 -278 -158 -278 -75 0 -129 34 -163 102 -32 65 -33 117 -2 183 27 60
77 106 139 130 44 17 45 17 36 51 -34 120 95 214 206 151z"/>
<path d="M1153 1630 c-83 -37 -112 -143 -54 -201 54 -54 141 -23 141 51 0 31
-29 149 -39 162 -3 4 -25 -1 -48 -12z"/>
<path d="M6636 2072 c-3 -5 4 -23 15 -40 10 -18 19 -37 19 -42 0 -6 -77 -10
-200 -10 l-200 0 0 -29 c0 -39 40 -71 90 -71 37 0 39 -2 89 -90 28 -49 51 -94
51 -100 0 -6 -58 -10 -155 -10 l-155 0 0 -28 c0 -17 9 -37 21 -48 20 -18 44
-19 526 -19 l505 0 19 24 c10 13 19 34 19 47 l0 24 -153 0 c-85 0 -156 3 -159
6 -4 3 18 47 47 97 l53 92 46 5 c54 7 76 25 79 66 l2 29 -198 3 -197 2 -31 50
c-30 49 -32 50 -79 50 -27 0 -51 -4 -54 -8z m314 -196 c0 -3 -24 -46 -54 -98
l-54 -93 -108 0 -108 0 -53 90 c-29 50 -53 93 -53 98 0 4 97 7 215 7 118 0
215 -2 215 -4z"/>
<path d="M8360 2029 c-97 -14 -470 -49 -613 -57 -104 -6 -142 -12 -153 -24
-11 -11 -24 -74 -41 -212 -25 -189 -25 -197 -8 -216 17 -19 31 -20 232 -20
l213 0 0 -179 c0 -164 -2 -180 -20 -204 -13 -16 -33 -27 -52 -29 -24 -2 -40
-14 -65 -46 -18 -24 -33 -48 -33 -53 0 -5 28 -9 63 -9 96 1 170 43 196 113 7
16 11 108 11 218 l0 189 195 0 c195 0 196 0 220 25 14 13 25 36 25 50 l0 25
-220 0 -220 0 0 115 0 115 -33 0 c-54 0 -66 -22 -69 -130 l-3 -95 -172 -3
-173 -2 0 22 c0 13 7 68 15 123 8 55 15 105 15 111 0 6 70 15 183 23 177 12
509 46 555 56 12 3 28 16 34 30 12 28 3 76 -15 74 -6 -1 -37 -5 -67 -10z"/>
<path d="M3777 2023 c-4 -3 -7 -100 -7 -214 0 -196 1 -209 19 -219 30 -16 792
-14 814 3 16 11 17 33 15 222 l-3 210 -416 3 c-228 1 -418 -1 -422 -5z m743
-123 l0 -50 -325 0 -325 0 0 50 0 50 325 0 325 0 0 -50z m0 -180 l0 -50 -325
0 -325 0 0 50 0 50 325 0 325 0 0 -50z"/>
<path d="M2347 2002 c-15 -17 -17 -68 -17 -521 l0 -502 53 3 52 3 3 468 2 467
420 0 420 0 0 -398 c0 -456 5 -431 -90 -440 -44 -4 -54 -10 -80 -42 -17 -21
-30 -43 -30 -49 0 -7 30 -11 85 -11 91 0 140 16 178 58 44 48 46 76 47 517 0
365 -2 423 -16 443 l-15 22 -498 0 c-470 0 -499 -1 -514 -18z"/>
<path d="M5000 1951 c0 -20 9 -36 26 -50 26 -20 37 -21 431 -21 l404 0 24 25
c14 13 25 36 25 50 l0 25 -455 0 -455 0 0 -29z"/>
<path d="M2520 1781 c0 -5 34 -68 75 -140 41 -71 75 -135 75 -141 0 -6 -34
-69 -75 -140 -41 -71 -75 -133 -75 -139 0 -7 22 -11 54 -11 l54 0 83 146 c64
113 80 150 72 163 -5 9 -42 73 -83 144 l-73 127 -53 0 c-30 0 -54 -4 -54 -9z"/>
<path d="M2770 1783 c0 -4 34 -66 75 -139 41 -73 75 -137 75 -144 0 -7 -34
-71 -75 -144 -41 -73 -75 -135 -75 -139 0 -4 24 -7 54 -7 l54 0 49 86 c27 48
53 86 58 86 5 0 31 -38 58 -86 l49 -86 54 0 c30 0 54 4 54 9 0 5 -34 67 -75
138 -41 71 -75 136 -75 143 0 7 34 72 75 143 41 71 75 133 75 138 0 5 -24 9
-54 9 l-54 0 -49 -86 c-27 -48 -53 -86 -58 -86 -5 0 -31 38 -58 86 l-49 86
-54 0 c-30 0 -54 -3 -54 -7z"/>
<path d="M4910 1601 c0 -20 9 -36 26 -50 24 -19 40 -21 165 -21 77 0 139 -3
139 -7 0 -3 -56 -113 -125 -243 -69 -130 -125 -244 -125 -252 0 -8 8 -22 18
-31 17 -15 63 -17 459 -17 413 0 441 1 456 18 10 10 17 25 17 33 0 8 -33 77
-73 154 l-72 140 -44 3 c-24 2 -48 -1 -54 -7 -6 -6 12 -49 52 -125 l62 -116
-341 0 c-187 0 -340 3 -340 8 0 4 51 104 114 222 l114 215 302 5 302 5 19 24
c10 13 19 34 19 47 l0 24 -545 0 -545 0 0 -29z"/>
<path d="M3707 1379 c-48 -66 -87 -124 -87 -130 0 -5 25 -9 55 -9 l55 0 63 85
62 85 83 0 c45 0 82 -1 82 -3 0 -2 -67 -95 -149 -207 -82 -113 -147 -208 -145
-212 3 -5 29 -8 58 -8 l52 0 153 211 c85 116 159 213 166 215 6 3 46 4 88 2
l75 -3 -149 -204 c-82 -113 -149 -209 -149 -213 0 -4 25 -8 55 -8 64 0 49 -15
250 263 l120 167 58 0 59 0 -4 -139 c-4 -173 -9 -181 -104 -181 l-64 0 -34
-47 c-19 -26 -32 -51 -30 -55 3 -5 47 -8 97 -8 110 0 160 19 203 76 l29 37 3
189 c2 135 0 194 -9 204 -10 12 -80 14 -433 14 l-422 0 -87 -121z"/>
<path d="M6332 1488 c-9 -9 -12 -78 -12 -250 0 -224 1 -238 19 -248 13 -6 157
-10 399 -10 354 0 380 1 395 18 15 16 17 48 17 241 0 134 -4 230 -10 242 -10
18 -25 19 -403 19 -292 0 -396 -3 -405 -12z m708 -138 l0 -60 -310 0 -310 0 0
60 0 60 310 0 310 0 0 -60z m0 -215 l0 -65 -307 2 -308 3 -3 49 c-2 27 -1 55
2 62 4 12 61 14 311 14 l305 0 0 -65z"/>
<path d="M7687 1378 c-14 -18 -55 -87 -93 -153 -37 -66 -76 -132 -86 -147 -25
-37 -16 -48 38 -48 33 0 51 6 67 23 21 20 207 336 207 351 0 3 -25 6 -54 6
-50 0 -57 -3 -79 -32z"/>
<path d="M8230 1405 c0 -13 187 -329 207 -351 17 -18 33 -24 67 -24 25 0 48 5
51 10 4 6 -9 36 -28 68 -19 31 -61 102 -92 157 -79 138 -87 145 -152 145 -29
0 -53 -2 -53 -5z"/>
</g>
</svg>
